<?xml version="1.0" standalone="no"?>
<!DOCTYPE svg PUBLIC "-//W3C//DTD SVG 20010904//EN"
 "http://www.w3.org/TR/2001/REC-SVG-20010904/DTD/svg10.dtd">
<svg version="1.0" xmlns="http://www.w3.org/2000/svg"
 width="700.000000pt" height="700.000000pt" viewBox="0 0 700.000000 700.000000"
 preserveAspectRatio="xMidYMid meet">
<metadata>
Created by potrace 1.11, written by Peter Selinger 2001-2013
</metadata>
<g transform="translate(0.000000,700.000000) scale(0.100000,-0.100000)"
fill="#000000" stroke="none">
<path d="M3190 6847 c-3 -3 -23 -7 -45 -10 -205 -30 -436 -185 -575 -387 -64
-95 -138 -263 -156 -355 -2 -11 -6 -32 -9 -47 -8 -34 -12 -71 -16 -128 -3 -44
-4 -45 -44 -50 -22 -3 -123 -4 -225 -2 l-185 3 -26 43 c-31 50 -82 78 -144 78
-162 0 -223 -200 -87 -287 l31 -20 1 -206 0 -205 -42 -2 c-24 -2 -86 -12 -138
-22 -410 -83 -719 -400 -757 -775 -4 -44 -8 -519 -8 -1055 0 -1095 -5 -1016
76 -1189 128 -274 400 -475 728 -535 46 -9 96 -16 111 -16 15 0 30 -6 32 -12
3 -11 3 -327 -1 -380 -1 -10 -16 -24 -34 -32 -99 -41 -128 -174 -53 -249 80
-81 226 -61 272 37 l16 33 228 -1 228 -1 11 -97 c54 -446 360 -786 766 -853
60 -10 1998 -14 2042 -5 21 5 52 11 68 13 66 10 201 69 278 121 204 135 349
349 417 611 19 74 23 117 24 240 1 155 -4 208 -30 309 -74 286 -276 532 -528
642 l-66 28 3 610 3 610 41 25 c54 32 77 73 77 137 0 58 -30 108 -80 134 -16
8 -31 18 -34 22 -3 3 -4 194 -3 425 1 230 2 505 3 610 l0 193 63 28 c102 47
177 99 263 186 93 94 151 176 205 290 116 248 135 540 52 801 -81 255 -251
463 -468 569 -182 90 -164 87 -865 101 -179 4 -401 8 -495 10 -500 11 -921 17
-925 12z m-804 -1081 c3 -68 17 -155 41 -236 86 -303 296 -541 565 -639 123
-45 156 -49 558 -56 162 -3 383 -7 490 -10 1133 -24 1120 -24 1228 0 l23 6 -2
-601 c-2 -404 -6 -604 -14 -609 -5 -5 -21 -12 -35 -16 -32 -10 -78 -57 -86
-90 l-6 -26 -781 1 -780 1 -21 42 c-53 105 -189 126 -271 41 -75 -77 -53 -194
45 -244 21 -10 39 -25 42 -32 5 -15 2 -1158 -4 -1163 -1 -1 -55 -5 -118 -8
-233 -12 -404 -86 -576 -250 -177 -167 -281 -394 -310 -677 -2 -24 -9 -47 -14
-50 -7 -4 -355 -5 -433 -1 -10 1 -21 11 -26 24 -13 32 -49 67 -85 82 l-32 14
2 198 c1 109 2 200 3 203 0 3 27 6 59 8 345 16 671 210 826 493 32 59 91 209
81 209 -2 0 1 15 7 33 12 37 16 295 18 1312 2 402 -1 748 -5 770 -33 183 -118
344 -252 478 -172 173 -432 287 -683 299 l-55 3 -3 198 -2 197 27 10 c57 21
77 36 102 77 l26 42 225 -1 225 -1 1 -31z m2769 -2363 c22 -37 75 -83 102 -89
l28 -6 -1 -601 c-1 -331 -6 -601 -10 -601 -77 14 -256 17 -939 20 -445 1 -827
3 -847 3 l-38 1 4 588 c2 323 4 590 5 595 0 4 6 7 13 7 22 0 78 45 89 72 6 15
20 28 32 30 12 2 366 2 787 0 710 -2 766 -4 775 -19z"/>
</g>
</svg>
