<?xml version="1.0" encoding="utf-8"?>
<!-- Generator: Adobe Illustrator 24.3.0, SVG Export Plug-In . SVG Version: 6.00 Build 0)  -->
<svg version="1.1" id="Capa_1" xmlns="http://www.w3.org/2000/svg" xmlns:xlink="http://www.w3.org/1999/xlink" x="0px" y="0px"
	 viewBox="0 0 264.13 106.96" style="enable-background:new 0 0 264.13 106.96;" xml:space="preserve">
<style type="text/css">
	.st0{fill:#5F0F40;}
	.st1{fill:#9A031E;}
	.st2{fill:#E58022;}
	.st3{fill:none;stroke:#C8B7B7;stroke-width:1.4173;stroke-linecap:round;}
	.st4{fill:#C8B7B7;}
	.st5{fill:none;stroke:#C8B7B7;stroke-width:1.4173;}
	.st6{fill-rule:evenodd;clip-rule:evenodd;fill:#CDB7B7;}
	.st7{fill-rule:evenodd;clip-rule:evenodd;fill:#C8B7B7;}
	.st8{fill:#22333B;}
	.st9{font-family:'PoiretOne-Regular';}
	.st10{font-size:38.5763px;}
	.st11{font-size:17.3593px;}
</style>
<path class="st0" d="M18.42,26.71c-8.34-0.11-15.07,5.76-15.1,13.16L3.21,66.91C3.18,74.3,9.86,80.33,18.2,80.43
	c8.33,0.1,15.06-5.77,15.09-13.16l0.11-27.04C33.43,32.85,26.75,26.81,18.42,26.71z"/>
<path class="st1" d="M27.24,88.64c-0.09,8.31,5.8,15.02,13.21,15.04l27.11,0.07c7.41,0.02,13.45-6.65,13.54-14.96
	c0.09-8.31-5.8-15.02-13.21-15.04l-27.11-0.07C33.38,73.65,27.34,80.33,27.24,88.64z"/>
<path class="st2" d="M81.3,19.03c0.24-8.31-5.53-15.12-12.94-15.27l-27.1-0.55c-7.41-0.15-13.57,6.42-13.81,14.73
	c-0.24,8.31,5.54,15.12,12.95,15.27l27.1,0.55C74.91,33.91,81.06,27.34,81.3,19.03z"/>
<path class="st3" d="M18.39,43.53c5.6,0.02,10.14,4.61,10.12,10.27c-0.02,5.66-4.57,10.23-10.18,10.21
	C12.73,63.99,8.2,59.39,8.21,53.74C8.23,48.08,12.78,43.51,18.39,43.53z"/>
<path class="st4" d="M28.07,51.23c1.38,0,2.5,1.07,2.49,2.38c0,1.31-1.12,2.37-2.51,2.36c-1.38,0-2.5-1.07-2.49-2.38
	C25.56,52.28,26.68,51.23,28.07,51.23z"/>
<path class="st4" d="M18.09,41.1c1.38,0,2.5,1.07,2.49,2.37c0,1.31-1.12,2.37-2.51,2.36c-1.38,0-2.5-1.07-2.49-2.38
	C15.59,42.15,16.71,41.1,18.09,41.1z"/>
<path class="st4" d="M8.56,51.55c1.38,0,2.5,1.07,2.5,2.38c0,1.31-1.12,2.37-2.51,2.36c-1.38,0-2.5-1.07-2.49-2.38
	C6.06,52.6,7.18,51.54,8.56,51.55z"/>
<path class="st4" d="M18.03,61.3c1.38,0.01,2.5,1.07,2.49,2.38c0,1.31-1.12,2.37-2.51,2.36c-1.38,0-2.5-1.07-2.49-2.38
	C15.53,62.35,16.65,61.3,18.03,61.3z"/>
<path class="st3" d="M54.15,8.66c5.61,0.02,10.14,4.61,10.12,10.27c-0.02,5.66-4.57,10.23-10.18,10.21
	c-5.6-0.02-10.14-4.61-10.12-10.27C43.98,13.22,48.54,8.64,54.15,8.66z"/>
<path class="st4" d="M63.82,16.14c1.38,0,2.5,1.07,2.49,2.38c0,1.31-1.12,2.36-2.51,2.36c-1.38,0-2.5-1.07-2.49-2.38
	C61.32,17.19,62.44,16.14,63.82,16.14z"/>
<path class="st4" d="M53.85,6.23c1.38,0,2.5,1.07,2.5,2.38c0,1.31-1.13,2.37-2.51,2.36c-1.38,0-2.5-1.07-2.5-2.38
	C51.34,7.29,52.47,6.23,53.85,6.23z"/>
<path class="st4" d="M44.32,16.09c1.38,0,2.5,1.07,2.5,2.38c0,1.31-1.12,2.37-2.51,2.36c-1.38,0-2.5-1.07-2.49-2.38
	C41.82,17.14,42.94,16.08,44.32,16.09z"/>
<path class="st4" d="M53.79,26.43c1.38,0,2.5,1.07,2.5,2.38c0,1.31-1.12,2.37-2.51,2.36c-1.38,0-2.5-1.07-2.49-2.38
	C51.29,27.49,52.41,26.43,53.79,26.43z"/>
<path class="st4" d="M70.96,86.1c1.38,0,2.5,1.07,2.49,2.38c0,1.31-1.12,2.36-2.51,2.36c-1.38,0-2.5-1.07-2.49-2.38
	C68.46,87.16,69.58,86.1,70.96,86.1z"/>
<line class="st5" x1="71.15" y1="89.24" x2="71.35" y2="18.31"/>
<line class="st5" x1="51.9" y1="88.54" x2="70.67" y2="88.6"/>
<line class="st5" x1="18.02" y1="65.73" x2="17.95" y2="90.65"/>
<line class="st5" x1="17.84" y1="88.84" x2="33.73" y2="88.88"/>
<path class="st4" d="M18.26,16.01c1.38,0,2.5,1.07,2.49,2.38c0,1.31-1.12,2.37-2.51,2.36c-1.38,0-2.5-1.07-2.49-2.38
	C15.76,17.07,16.88,16.01,18.26,16.01z"/>
<line class="st6" x1="19.23" y1="18.38" x2="45.23" y2="18.46"/>
<line class="st5" x1="19.23" y1="18.38" x2="45.23" y2="18.46"/>
<line class="st5" x1="17.93" y1="19.55" x2="17.86" y2="44.97"/>
<path class="st4" d="M17.94,86.46c1.38,0,2.5,1.07,2.49,2.38s-1.12,2.37-2.51,2.36c-1.38,0-2.5-1.07-2.49-2.38
	C15.43,87.52,16.56,86.46,17.94,86.46z"/>
<path class="st3" d="M43.09,78.26c5.61,0.02,10.14,4.61,10.12,10.27c-0.02,5.66-4.57,10.23-10.18,10.21
	c-5.6-0.02-10.14-4.61-10.12-10.27C32.93,82.82,37.48,78.25,43.09,78.26z"/>
<path class="st4" d="M52.77,85.96c1.38,0,2.5,1.07,2.49,2.38c0,1.31-1.12,2.37-2.51,2.36c-1.38,0-2.5-1.07-2.49-2.38
	C50.26,87.02,51.38,85.96,52.77,85.96z"/>
<path class="st4" d="M42.79,75.84c1.38,0,2.5,1.07,2.49,2.38s-1.12,2.37-2.51,2.36c-1.38,0-2.5-1.07-2.49-2.38
	C40.29,76.89,41.41,75.83,42.79,75.84z"/>
<path class="st4" d="M33.26,86.28c1.38,0.01,2.5,1.07,2.5,2.38c0,1.31-1.13,2.37-2.51,2.36c-1.38,0-2.5-1.07-2.5-2.38
	C30.75,87.34,31.88,86.28,33.26,86.28z"/>
<path class="st4" d="M42.73,96.04c1.38,0,2.5,1.07,2.49,2.38c0,1.31-1.12,2.37-2.51,2.36c-1.38,0-2.5-1.07-2.49-2.38
	C40.23,97.09,41.35,96.04,42.73,96.04z"/>
<path class="st4" d="M70.8,16.16c1.38,0,2.5,1.07,2.5,2.38s-1.13,2.37-2.51,2.36c-1.38,0-2.5-1.07-2.5-2.38
	C68.29,17.22,69.42,16.16,70.8,16.16z"/>
<line class="st5" x1="42.84" y1="77.89" x2="42.9" y2="54.11"/>
<path class="st4" d="M42.85,51.31c1.38,0,2.5,1.07,2.49,2.38c0,1.31-1.12,2.37-2.51,2.36c-1.38,0-2.5-1.07-2.49-2.38
	C40.35,52.36,41.47,51.31,42.85,51.31z"/>
<line class="st5" x1="62.32" y1="18.51" x2="71.79" y2="18.54"/>
<path class="st4" d="M71.12,51.39c1.38,0,2.5,1.07,2.5,2.38c0,1.31-1.13,2.37-2.51,2.36c-1.38,0-2.5-1.07-2.5-2.38
	S69.74,51.39,71.12,51.39z"/>
<line class="st7" x1="42.77" y1="53.83" x2="72.33" y2="53.92"/>
<line class="st5" x1="42.77" y1="53.83" x2="72.33" y2="53.92"/>
<text transform="matrix(1.0026 0 0 1 44.6836 68.0378)"><tspan x="0" y="0" class="st8 st9 st10">C</tspan><tspan x="27.7" y="0" class="st8 st9 st10">O</tspan><tspan x="61.88" y="0" class="st8 st9 st10">M</tspan><tspan x="98.25" y="0" class="st8 st9 st10">M</tspan><tspan x="134.59" y="0" class="st8 st9 st10">O</tspan><tspan x="169.23" y="0" class="st8 st9 st10">N</tspan><tspan x="198.24" y="0" class="st8 st9 st10">S</tspan></text>
<text transform="matrix(1.0026 0 0 1 123.2837 87.2272)"><tspan x="0" y="0" class="st8 st9 st11">La</tspan><tspan x="17.45" y="0" class="st8 st9 st11">b</tspan><tspan x="27.97" y="0" class="st8 st9 st11">o</tspan><tspan x="37.93" y="0" class="st8 st9 st11">ra</tspan><tspan x="54.59" y="0" class="st8 st9 st11">t</tspan><tspan x="59.38" y="0" class="st8 st9 st11">o</tspan><tspan x="69.35" y="0" class="st8 st9 st11">r</tspan><tspan x="75.48" y="0" class="st8 st9 st11">y</tspan><tspan x="84.87" y="0" class="st8 st9 st11"> </tspan><tspan x="89.28" y="0" class="st8 st9 st11">at</tspan><tspan x="104.61" y="0" class="st8 st9 st11"> </tspan><tspan x="109" y="0" class="st8 st9 st11">U</tspan><tspan x="120.05" y="0" class="st8 st9 st11">C</tspan><tspan x="132.83" y="0" class="st8 st9 st11">I</tspan></text>
</svg>
