<?xml version="1.0" encoding="utf-8"?>
<!-- Generator: Adobe Illustrator 24.3.0, SVG Export Plug-In . SVG Version: 6.00 Build 0)  -->
<svg version="1.1" id="Capa_1" xmlns="http://www.w3.org/2000/svg" xmlns:xlink="http://www.w3.org/1999/xlink" x="0px" y="0px"
	 viewBox="0 0 264.13 106.96" style="enable-background:new 0 0 264.13 106.96;" xml:space="preserve">
<style type="text/css">
	.st0{fill:#5F0F40;}
	.st1{fill:#9A031E;}
	.st2{fill:#E58022;}
	.st3{fill:none;stroke:#C8B7B7;stroke-width:1.4173;stroke-linecap:round;}
	.st4{fill:#C8B7B7;}
	.st5{fill:none;stroke:#C8B7B7;stroke-width:1.4173;}
	.st6{fill-rule:evenodd;clip-rule:evenodd;fill:#CDB7B7;}
	.st7{fill-rule:evenodd;clip-rule:evenodd;fill:#C8B7B7;}
	.st8{fill:#22333B;}
</style>
<path class="st0" d="M18.42,26.71c-8.34-0.11-15.07,5.76-15.1,13.16L3.21,66.91C3.18,74.3,9.86,80.33,18.2,80.43
	c8.33,0.1,15.06-5.77,15.09-13.16l0.11-27.04C33.43,32.85,26.75,26.81,18.42,26.71z"/>
<path class="st1" d="M27.24,88.64c-0.09,8.31,5.8,15.02,13.21,15.04l27.11,0.07c7.41,0.02,13.45-6.65,13.54-14.96
	c0.09-8.31-5.8-15.02-13.21-15.04l-27.11-0.07C33.38,73.65,27.34,80.33,27.24,88.64z"/>
<path class="st2" d="M81.3,19.03c0.24-8.31-5.53-15.12-12.94-15.27l-27.1-0.55c-7.41-0.15-13.57,6.42-13.81,14.73
	c-0.24,8.31,5.54,15.12,12.95,15.27l27.1,0.55C74.91,33.91,81.06,27.34,81.3,19.03z"/>
<path class="st3" d="M18.39,43.53c5.6,0.02,10.14,4.61,10.12,10.27c-0.02,5.66-4.57,10.23-10.18,10.21
	C12.73,63.99,8.2,59.39,8.21,53.74C8.23,48.08,12.78,43.51,18.39,43.53z"/>
<path class="st4" d="M28.07,51.23c1.38,0,2.5,1.07,2.49,2.38c0,1.31-1.12,2.37-2.51,2.36c-1.38,0-2.5-1.07-2.49-2.38
	C25.56,52.28,26.68,51.23,28.07,51.23z"/>
<path class="st4" d="M18.09,41.1c1.38,0,2.5,1.07,2.49,2.37c0,1.31-1.12,2.37-2.51,2.36c-1.38,0-2.5-1.07-2.49-2.38
	C15.59,42.15,16.71,41.1,18.09,41.1z"/>
<path class="st4" d="M8.56,51.55c1.38,0,2.5,1.07,2.5,2.38c0,1.31-1.12,2.37-2.51,2.36c-1.38,0-2.5-1.07-2.49-2.38
	C6.06,52.6,7.18,51.54,8.56,51.55z"/>
<path class="st4" d="M18.03,61.3c1.38,0.01,2.5,1.07,2.49,2.38c0,1.31-1.12,2.37-2.51,2.36c-1.38,0-2.5-1.07-2.49-2.38
	C15.53,62.35,16.65,61.3,18.03,61.3z"/>
<path class="st3" d="M54.15,8.66c5.61,0.02,10.14,4.61,10.12,10.27c-0.02,5.66-4.57,10.23-10.18,10.21
	c-5.6-0.02-10.14-4.61-10.12-10.27C43.98,13.22,48.54,8.64,54.15,8.66z"/>
<path class="st4" d="M63.82,16.14c1.38,0,2.5,1.07,2.49,2.38c0,1.31-1.12,2.36-2.51,2.36c-1.38,0-2.5-1.07-2.49-2.38
	C61.32,17.19,62.44,16.14,63.82,16.14z"/>
<path class="st4" d="M53.85,6.23c1.38,0,2.5,1.07,2.5,2.38c0,1.31-1.13,2.37-2.51,2.36c-1.38,0-2.5-1.07-2.5-2.38
	C51.34,7.29,52.47,6.23,53.85,6.23z"/>
<path class="st4" d="M44.32,16.09c1.38,0,2.5,1.07,2.5,2.38c0,1.31-1.12,2.37-2.51,2.36c-1.38,0-2.5-1.07-2.49-2.38
	C41.82,17.14,42.94,16.08,44.32,16.09z"/>
<path class="st4" d="M53.79,26.43c1.38,0,2.5,1.07,2.5,2.38c0,1.31-1.12,2.37-2.51,2.36c-1.38,0-2.5-1.07-2.49-2.38
	C51.29,27.49,52.41,26.43,53.79,26.43z"/>
<path class="st4" d="M70.96,86.1c1.38,0,2.5,1.07,2.49,2.38c0,1.31-1.12,2.36-2.51,2.36c-1.38,0-2.5-1.07-2.49-2.38
	C68.46,87.16,69.58,86.1,70.96,86.1z"/>
<line class="st5" x1="71.15" y1="89.24" x2="71.35" y2="18.31"/>
<line class="st5" x1="51.9" y1="88.54" x2="70.67" y2="88.6"/>
<line class="st5" x1="18.02" y1="65.73" x2="17.95" y2="90.65"/>
<line class="st5" x1="17.84" y1="88.84" x2="33.73" y2="88.88"/>
<path class="st4" d="M18.26,16.01c1.38,0,2.5,1.07,2.49,2.38c0,1.31-1.12,2.37-2.51,2.36c-1.38,0-2.5-1.07-2.49-2.38
	C15.76,17.07,16.88,16.01,18.26,16.01z"/>
<line class="st6" x1="19.23" y1="18.38" x2="45.23" y2="18.46"/>
<line class="st5" x1="19.23" y1="18.38" x2="45.23" y2="18.46"/>
<line class="st5" x1="17.93" y1="19.55" x2="17.86" y2="44.97"/>
<path class="st4" d="M17.94,86.46c1.38,0,2.5,1.07,2.49,2.38s-1.12,2.37-2.51,2.36c-1.38,0-2.5-1.07-2.49-2.38
	C15.43,87.52,16.56,86.46,17.94,86.46z"/>
<path class="st3" d="M43.09,78.26c5.61,0.02,10.14,4.61,10.12,10.27c-0.02,5.66-4.57,10.23-10.18,10.21
	c-5.6-0.02-10.14-4.61-10.12-10.27C32.93,82.82,37.48,78.25,43.09,78.26z"/>
<path class="st4" d="M52.77,85.96c1.38,0,2.5,1.07,2.49,2.38c0,1.31-1.12,2.37-2.51,2.36c-1.38,0-2.5-1.07-2.49-2.38
	C50.26,87.02,51.38,85.96,52.77,85.96z"/>
<path class="st4" d="M42.79,75.84c1.38,0,2.5,1.07,2.49,2.38s-1.12,2.37-2.51,2.36c-1.38,0-2.5-1.07-2.49-2.38
	C40.29,76.89,41.41,75.83,42.79,75.84z"/>
<path class="st4" d="M33.26,86.28c1.38,0.01,2.5,1.07,2.5,2.38c0,1.31-1.13,2.37-2.51,2.36c-1.38,0-2.5-1.07-2.5-2.38
	C30.75,87.34,31.88,86.28,33.26,86.28z"/>
<path class="st4" d="M42.73,96.04c1.38,0,2.5,1.07,2.49,2.38c0,1.31-1.12,2.37-2.51,2.36c-1.38,0-2.5-1.07-2.49-2.38
	C40.23,97.09,41.35,96.04,42.73,96.04z"/>
<path class="st4" d="M70.8,16.16c1.38,0,2.5,1.07,2.5,2.38s-1.13,2.37-2.51,2.36c-1.38,0-2.5-1.07-2.5-2.38
	C68.29,17.22,69.42,16.16,70.8,16.16z"/>
<line class="st5" x1="42.84" y1="77.89" x2="42.9" y2="54.11"/>
<path class="st4" d="M42.85,51.31c1.38,0,2.5,1.07,2.49,2.38c0,1.31-1.12,2.37-2.51,2.36c-1.38,0-2.5-1.07-2.49-2.38
	C40.35,52.36,41.47,51.31,42.85,51.31z"/>
<line class="st5" x1="62.32" y1="18.51" x2="71.79" y2="18.54"/>
<path class="st4" d="M71.12,51.39c1.38,0,2.5,1.07,2.5,2.38c0,1.31-1.13,2.37-2.51,2.36c-1.38,0-2.5-1.07-2.5-2.38
	S69.74,51.39,71.12,51.39z"/>
<line class="st7" x1="42.77" y1="53.83" x2="72.33" y2="53.92"/>
<line class="st5" x1="42.77" y1="53.83" x2="72.33" y2="53.92"/>
<g>
	<path class="st8" d="M53.89,66.82c-2.27-1.32-4.07-3.15-5.4-5.48c-1.33-2.33-1.99-4.94-1.99-7.85c0-2.8,0.69-5.36,2.07-7.68
		c1.38-2.31,3.22-4.14,5.53-5.48c2.31-1.34,4.76-2.01,7.37-2.01c1.8,0,3.24,0.16,4.29,0.48c1.06,0.32,2.28,0.88,3.67,1.68v1.43
		c-1.31-0.9-2.53-1.54-3.65-1.91c-1.12-0.37-2.52-0.56-4.2-0.56c-2.55,0-4.88,0.65-6.98,1.95c-2.1,1.3-3.76,3.03-4.99,5.21
		c-1.23,2.17-1.84,4.51-1.84,7c0,2.52,0.62,4.86,1.86,7.02c1.24,2.16,2.88,3.88,4.93,5.15c2.05,1.27,4.26,1.91,6.63,1.91
		c1.7,0,3.18-0.2,4.45-0.6c1.26-0.4,2.53-1.02,3.79-1.87v1.43c-1.24,0.75-2.51,1.29-3.81,1.64c-1.3,0.35-2.73,0.52-4.27,0.52
		C58.65,68.81,56.16,68.15,53.89,66.82z"/>
	<path class="st8" d="M81.81,66.69c-2.32-1.41-4.16-3.3-5.51-5.65c-1.35-2.35-2.03-4.88-2.03-7.58c0-2.67,0.68-5.18,2.05-7.5
		c1.37-2.33,3.21-4.18,5.53-5.56c2.32-1.38,4.83-2.06,7.54-2.06c2.73,0,5.25,0.68,7.54,2.04c2.29,1.36,4.12,3.21,5.47,5.54
		c1.35,2.33,2.03,4.84,2.03,7.54c0,2.78-0.68,5.34-2.03,7.7c-1.35,2.35-3.18,4.22-5.49,5.59c-2.31,1.38-4.83,2.06-7.56,2.06
		C86.65,68.81,84.13,68.1,81.81,66.69z M96.24,65.78c2.11-1.27,3.8-3,5.05-5.17c1.25-2.17,1.88-4.53,1.88-7.08
		c0-2.52-0.62-4.86-1.86-7.02c-1.24-2.16-2.91-3.88-5.03-5.15c-2.11-1.27-4.41-1.91-6.88-1.91c-2.5,0-4.81,0.64-6.92,1.91
		c-2.11,1.27-3.8,2.99-5.05,5.15c-1.25,2.16-1.88,4.5-1.88,7.02c0,2.55,0.62,4.91,1.88,7.08c1.25,2.17,2.93,3.9,5.05,5.17
		c2.11,1.27,4.41,1.91,6.88,1.91C91.83,67.69,94.12,67.05,96.24,65.78z"/>
	<path class="st8" d="M139.52,39.11v28.93h-1.28V40.96l-13.69,27.62l-13.61-27.97v27.43h-1.28V39.11h1.82l13.07,26.85l13.19-26.85
		H139.52z"/>
	<path class="st8" d="M175.99,39.11v28.93h-1.28V40.96l-13.69,27.62l-13.61-27.97v27.43h-1.28V39.11h1.82l13.07,26.85l13.19-26.85
		H175.99z"/>
	<path class="st8" d="M188.98,66.69c-2.32-1.41-4.16-3.3-5.51-5.65c-1.35-2.35-2.03-4.88-2.03-7.58c0-2.67,0.68-5.18,2.05-7.5
		c1.37-2.33,3.21-4.18,5.53-5.56c2.32-1.38,4.83-2.06,7.54-2.06c2.73,0,5.25,0.68,7.54,2.04c2.29,1.36,4.12,3.21,5.47,5.54
		c1.35,2.33,2.03,4.84,2.03,7.54c0,2.78-0.68,5.34-2.03,7.7s-3.18,4.22-5.49,5.59c-2.31,1.38-4.83,2.06-7.56,2.06
		C193.82,68.81,191.3,68.1,188.98,66.69z M203.41,65.78c2.11-1.27,3.8-3,5.05-5.17c1.25-2.17,1.88-4.53,1.88-7.08
		c0-2.52-0.62-4.86-1.86-7.02c-1.24-2.16-2.91-3.88-5.03-5.15c-2.11-1.27-4.41-1.91-6.88-1.91c-2.5,0-4.81,0.64-6.92,1.91
		c-2.12,1.27-3.8,2.99-5.05,5.15c-1.25,2.16-1.88,4.5-1.88,7.02c0,2.55,0.62,4.91,1.88,7.08c1.25,2.17,2.93,3.9,5.05,5.17
		c2.11,1.27,4.41,1.91,6.88,1.91S201.29,67.05,203.41,65.78z"/>
	<path class="st8" d="M218.53,42v26.04h-1.12V38.68l21.35,26.42v-26h1.12v29.36L218.53,42z"/>
	<path class="st8" d="M245.06,64.6v-2.08c0.7,1.54,1.71,2.75,3.04,3.63s2.92,1.31,4.78,1.31c1.29,0,2.48-0.28,3.58-0.85
		c1.1-0.57,1.97-1.36,2.61-2.39s0.97-2.21,0.97-3.55c0-1.21-0.21-2.25-0.62-3.12c-0.41-0.87-1.1-1.72-2.05-2.53
		c-0.95-0.81-2.33-1.77-4.14-2.87l-1.24-0.77c-1.14-0.69-2.05-1.31-2.75-1.85s-1.3-1.17-1.82-1.89c-0.67-1-1-2.16-1-3.47
		c0-1.75,0.57-3.11,1.7-4.09c1.13-0.98,2.58-1.47,4.33-1.47c2.37,0,4.25,0.87,5.65,2.62v1.97c-0.59-1.08-1.41-1.93-2.44-2.55
		s-2.17-0.93-3.4-0.93c-1.29,0-2.37,0.4-3.25,1.2c-0.88,0.8-1.32,1.86-1.32,3.2c0,1.31,0.41,2.44,1.22,3.38
		c0.81,0.94,2.19,1.96,4.12,3.07c2.37,1.39,4.22,2.65,5.53,3.78c0.93,0.85,1.61,1.79,2.03,2.82c0.42,1.03,0.64,2.17,0.64,3.43
		c0,1.6-0.37,3-1.12,4.21c-0.75,1.21-1.78,2.14-3.09,2.8c-1.31,0.66-2.8,0.98-4.45,0.98C249.34,68.58,246.84,67.25,245.06,64.6z"/>
</g>
<g>
	<path class="st8" d="M124.66,74.21h0.57v12.52h4.04v0.5h-4.61V74.21z"/>
	<path class="st8" d="M132.93,86.86c-0.64-0.37-1.14-0.87-1.51-1.5c-0.37-0.63-0.56-1.31-0.56-2.04c0-0.73,0.19-1.41,0.56-2.04
		c0.37-0.63,0.88-1.13,1.51-1.5c0.64-0.37,1.33-0.55,2.07-0.55c0.75,0,1.47,0.2,2.14,0.6c0.67,0.4,1.14,0.92,1.41,1.55v-1.96h0.56
		v7.81h-0.56v-1.94c-0.31,0.65-0.8,1.17-1.45,1.55s-1.36,0.58-2.1,0.58S133.56,87.23,132.93,86.86z M136.81,86.44
		c0.54-0.33,0.98-0.77,1.3-1.32c0.32-0.55,0.48-1.15,0.48-1.8c0-0.64-0.16-1.23-0.49-1.79c-0.32-0.56-0.76-1-1.3-1.33
		s-1.14-0.5-1.78-0.5s-1.23,0.17-1.78,0.5s-0.99,0.78-1.32,1.34c-0.33,0.55-0.5,1.15-0.5,1.79c0,0.64,0.17,1.23,0.5,1.78
		c0.33,0.55,0.77,0.99,1.33,1.32c0.56,0.33,1.15,0.5,1.79,0.5S136.26,86.77,136.81,86.44z"/>
	<path class="st8" d="M143.93,86.85c-0.66-0.38-1.16-0.88-1.51-1.51v1.89h-0.56V74.21h0.56v7.19c0.31-0.66,0.8-1.19,1.46-1.58
		s1.36-0.59,2.09-0.59c0.75,0,1.45,0.18,2.08,0.55c0.63,0.37,1.13,0.87,1.5,1.49s0.56,1.31,0.56,2.05c0,0.74-0.19,1.42-0.56,2.05
		s-0.87,1.12-1.5,1.49c-0.63,0.37-1.33,0.56-2.08,0.56C145.27,87.42,144.59,87.23,143.93,86.85z M147.79,86.44
		c0.55-0.33,0.98-0.77,1.3-1.32c0.32-0.55,0.48-1.15,0.48-1.8c0-0.64-0.16-1.23-0.49-1.79s-0.76-1-1.31-1.33
		c-0.54-0.33-1.14-0.5-1.77-0.5c-0.64,0-1.23,0.17-1.78,0.5c-0.55,0.34-0.99,0.78-1.32,1.34c-0.33,0.55-0.5,1.15-0.5,1.79
		c0,0.64,0.17,1.23,0.5,1.78c0.33,0.55,0.77,0.99,1.33,1.32c0.56,0.33,1.15,0.5,1.79,0.5C146.65,86.93,147.24,86.77,147.79,86.44z"
		/>
	<path class="st8" d="M154,86.92c-0.64-0.39-1.14-0.9-1.5-1.54c-0.36-0.64-0.54-1.34-0.54-2.09c0-0.74,0.18-1.43,0.55-2.07
		s0.86-1.14,1.5-1.52c0.63-0.38,1.34-0.56,2.11-0.56c0.77,0,1.46,0.19,2.1,0.56c0.63,0.38,1.13,0.88,1.49,1.52s0.54,1.33,0.54,2.07
		c0,0.78-0.17,1.48-0.52,2.13c-0.35,0.64-0.83,1.15-1.45,1.53c-0.62,0.38-1.33,0.56-2.13,0.56C155.35,87.51,154.64,87.31,154,86.92z
		 M157.95,86.52c0.55-0.33,0.97-0.78,1.28-1.34s0.46-1.18,0.46-1.85c0-0.66-0.16-1.27-0.47-1.84c-0.31-0.57-0.74-1.02-1.29-1.35
		c-0.54-0.34-1.15-0.5-1.81-0.5s-1.27,0.17-1.82,0.51c-0.55,0.34-0.99,0.8-1.3,1.36c-0.32,0.57-0.48,1.18-0.48,1.84
		c0,0.66,0.16,1.27,0.48,1.83c0.32,0.56,0.75,1.01,1.3,1.34c0.55,0.34,1.16,0.5,1.84,0.5C156.8,87.02,157.41,86.85,157.95,86.52z"/>
	<path class="st8" d="M162.41,79.42h0.56v1.81c0.23-0.57,0.57-1.01,1.02-1.34c0.45-0.32,0.95-0.49,1.52-0.49
		c0.36,0,0.73,0.08,1.1,0.23v0.64c-0.34-0.25-0.71-0.38-1.13-0.38c-0.42,0-0.82,0.13-1.21,0.38c-0.39,0.25-0.7,0.6-0.94,1.02
		c-0.24,0.43-0.36,0.88-0.36,1.37v4.57h-0.56V79.42z"/>
	<path class="st8" d="M170.17,86.86c-0.64-0.37-1.14-0.87-1.51-1.5c-0.37-0.63-0.56-1.31-0.56-2.04c0-0.73,0.19-1.41,0.56-2.04
		c0.37-0.63,0.88-1.13,1.51-1.5c0.64-0.37,1.33-0.55,2.07-0.55c0.75,0,1.47,0.2,2.14,0.6s1.14,0.92,1.41,1.55v-1.96h0.56v7.81h-0.56
		v-1.94c-0.31,0.65-0.8,1.17-1.45,1.55c-0.66,0.39-1.36,0.58-2.1,0.58S170.81,87.23,170.17,86.86z M174.05,86.44
		c0.54-0.33,0.98-0.77,1.3-1.32c0.32-0.55,0.48-1.15,0.48-1.8c0-0.64-0.16-1.23-0.49-1.79c-0.32-0.56-0.76-1-1.3-1.33
		c-0.55-0.33-1.14-0.5-1.78-0.5c-0.64,0-1.23,0.17-1.78,0.5s-0.99,0.78-1.32,1.34c-0.33,0.55-0.5,1.15-0.5,1.79
		c0,0.64,0.17,1.23,0.5,1.78c0.33,0.55,0.77,0.99,1.33,1.32c0.56,0.33,1.15,0.5,1.79,0.5C172.91,86.93,173.51,86.77,174.05,86.44z"
		/>
	<path class="st8" d="M179.79,86.55c-0.56-0.52-0.84-1.24-0.84-2.15v-8.12h0.56v3.14h2.4v0.49h-2.4v4.5c0,0.76,0.23,1.36,0.69,1.8
		c0.46,0.43,1.04,0.65,1.73,0.65v0.49C181.06,87.33,180.35,87.07,179.79,86.55z"/>
	<path class="st8" d="M185.5,86.92c-0.64-0.39-1.14-0.9-1.5-1.54c-0.36-0.64-0.54-1.34-0.54-2.09c0-0.74,0.18-1.43,0.55-2.07
		s0.86-1.14,1.5-1.52c0.63-0.38,1.34-0.56,2.11-0.56c0.77,0,1.46,0.19,2.1,0.56c0.63,0.38,1.13,0.88,1.49,1.52s0.54,1.33,0.54,2.07
		c0,0.78-0.17,1.48-0.52,2.13c-0.35,0.64-0.83,1.15-1.45,1.53c-0.62,0.38-1.33,0.56-2.13,0.56
		C186.85,87.51,186.14,87.31,185.5,86.92z M189.45,86.52c0.55-0.33,0.97-0.78,1.28-1.34s0.46-1.18,0.46-1.85
		c0-0.66-0.16-1.27-0.47-1.84c-0.31-0.57-0.74-1.02-1.29-1.35c-0.54-0.34-1.15-0.5-1.81-0.5s-1.27,0.17-1.82,0.51
		c-0.55,0.34-0.99,0.8-1.3,1.36c-0.32,0.57-0.48,1.18-0.48,1.84c0,0.66,0.16,1.27,0.48,1.83c0.32,0.56,0.75,1.01,1.3,1.34
		c0.55,0.34,1.16,0.5,1.84,0.5C188.3,87.02,188.91,86.85,189.45,86.52z"/>
	<path class="st8" d="M193.91,79.42h0.56v1.81c0.23-0.57,0.57-1.01,1.02-1.34c0.45-0.32,0.95-0.49,1.52-0.49
		c0.36,0,0.73,0.08,1.1,0.23v0.64c-0.34-0.25-0.71-0.38-1.13-0.38c-0.42,0-0.82,0.13-1.21,0.38c-0.39,0.25-0.7,0.6-0.94,1.02
		c-0.24,0.43-0.36,0.88-0.36,1.37v4.57h-0.56V79.42z"/>
	<path class="st8" d="M200.21,89.29v-0.89c0.38,0.6,0.82,1.05,1.31,1.35c0.49,0.29,1.06,0.44,1.71,0.44c0.66,0,1.23-0.14,1.7-0.42
		c0.47-0.28,0.83-0.66,1.07-1.14c0.24-0.48,0.37-1.02,0.37-1.61v-1.32c-0.28,0.54-0.7,0.96-1.26,1.26c-0.56,0.3-1.17,0.44-1.84,0.44
		s-1.25-0.15-1.76-0.43s-0.91-0.69-1.19-1.21s-0.43-1.12-0.43-1.81v-4.55h0.56v4.55c0,0.62,0.13,1.16,0.39,1.61s0.61,0.78,1.04,1.02
		c0.43,0.23,0.9,0.35,1.41,0.35c0.56,0,1.07-0.14,1.55-0.41c0.48-0.27,0.85-0.64,1.12-1.09c0.27-0.46,0.41-0.95,0.41-1.47v-4.55
		h0.56v7.57c0,0.69-0.14,1.32-0.43,1.88s-0.7,1-1.24,1.33c-0.55,0.32-1.2,0.49-1.95,0.49C201.99,90.68,200.96,90.22,200.21,89.29z"
		/>
	<path class="st8" d="M215.51,86.86c-0.64-0.37-1.14-0.87-1.51-1.5c-0.37-0.63-0.56-1.31-0.56-2.04c0-0.73,0.19-1.41,0.56-2.04
		c0.37-0.63,0.88-1.13,1.51-1.5c0.64-0.37,1.33-0.55,2.07-0.55c0.75,0,1.47,0.2,2.14,0.6s1.14,0.92,1.41,1.55v-1.96h0.56v7.81h-0.56
		v-1.94c-0.31,0.65-0.8,1.17-1.45,1.55c-0.66,0.39-1.36,0.58-2.1,0.58S216.15,87.23,215.51,86.86z M219.39,86.44
		c0.54-0.33,0.98-0.77,1.3-1.32c0.32-0.55,0.48-1.15,0.48-1.8c0-0.64-0.16-1.23-0.49-1.79c-0.32-0.56-0.76-1-1.3-1.33
		c-0.55-0.33-1.14-0.5-1.78-0.5c-0.64,0-1.23,0.17-1.78,0.5s-0.99,0.78-1.32,1.34c-0.33,0.55-0.5,1.15-0.5,1.79
		c0,0.64,0.17,1.23,0.5,1.78c0.33,0.55,0.77,0.99,1.33,1.32c0.56,0.33,1.15,0.5,1.79,0.5C218.25,86.93,218.84,86.77,219.39,86.44z"
		/>
	<path class="st8" d="M225.11,86.55c-0.56-0.52-0.84-1.24-0.84-2.15v-8.12h0.56v3.14h2.4v0.49h-2.4v4.5c0,0.76,0.23,1.36,0.69,1.8
		c0.46,0.43,1.04,0.65,1.73,0.65v0.49C226.38,87.33,225.67,87.07,225.11,86.55z"/>
	<path class="st8" d="M235.84,87.1c-0.59-0.32-1.06-0.77-1.39-1.36c-0.34-0.59-0.5-1.28-0.5-2.07v-9.46h0.57v9.44
		c0,0.69,0.14,1.3,0.44,1.81c0.29,0.51,0.69,0.91,1.19,1.19c0.5,0.28,1.07,0.42,1.7,0.42s1.19-0.14,1.7-0.41
		c0.5-0.27,0.9-0.67,1.18-1.18c0.28-0.51,0.43-1.13,0.43-1.83v-9.44h0.57v9.43c0,0.8-0.16,1.5-0.49,2.09
		c-0.32,0.6-0.78,1.05-1.37,1.37s-1.26,0.48-2.01,0.48C237.1,87.57,236.43,87.42,235.84,87.1z"/>
	<path class="st8" d="M247.79,86.68c-1.02-0.6-1.83-1.42-2.43-2.46c-0.6-1.05-0.9-2.22-0.9-3.53c0-1.26,0.31-2.41,0.93-3.46
		c0.62-1.04,1.45-1.86,2.49-2.46c1.04-0.6,2.14-0.9,3.32-0.9c0.81,0,1.46,0.07,1.93,0.22s1.03,0.4,1.65,0.75v0.64
		c-0.59-0.41-1.14-0.69-1.64-0.86s-1.13-0.25-1.89-0.25c-1.15,0-2.2,0.29-3.14,0.88c-0.95,0.58-1.69,1.37-2.25,2.34
		c-0.55,0.98-0.83,2.03-0.83,3.15c0,1.13,0.28,2.19,0.83,3.16c0.56,0.97,1.3,1.75,2.22,2.32c0.92,0.57,1.92,0.86,2.98,0.86
		c0.77,0,1.43-0.09,2-0.27c0.57-0.18,1.14-0.46,1.71-0.84v0.64c-0.56,0.34-1.13,0.58-1.71,0.74c-0.59,0.16-1.23,0.23-1.92,0.23
		C249.93,87.57,248.81,87.28,247.79,86.68z"/>
	<path class="st8" d="M257.92,74.21h0.57v13.02h-0.57V74.21z"/>
</g>
</svg>
